<?xml version="1.0" encoding="utf-8"?>
<!-- Generator: Adobe Illustrator 18.1.1, SVG Export Plug-In . SVG Version: 6.00 Build 0)  -->
<!DOCTYPE svg PUBLIC "-//W3C//DTD SVG 1.1//EN" "http://www.w3.org/Graphics/SVG/1.1/DTD/svg11.dtd">
<svg version="1.1" id="Layer_1" xmlns="http://www.w3.org/2000/svg" xmlns:xlink="http://www.w3.org/1999/xlink" x="0px" y="0px"
	 viewBox="0 0 529.2 232.3" enable-background="new 0 0 529.2 232.3" xml:space="preserve">
<polyline fill="#F4F0E4" points="117,189 81.6,189 63.2,104 134.9,104 116.7,189.1 "/>
<path d="M134.8,103.9h5.3c0.5,0,0.8-0.6,0.5-1l-2.1-3.3c-0.8-1.2-1.9-2-3.3-2.3l-5.1-1.5l-2.6-6.9c-0.3-0.7-0.9-1.1-1.6-1.1H70.2
	c-0.5,0-1,0.4-1.2,0.9l-1.7,6.7l-5.8,2c-0.9,0.3-1.7,1-2.1,1.8l-1.7,3.2c-0.4,0.7,0.1,1.5,0.9,1.5h4.6H134.8z"/>
<polygon fill="#A07A4D" points="67.6,129 131.1,129 123.4,160 74.1,160 "/>
<g>
	<g>
		<path fill="#D4D6D6" d="M110.2,79.5c2.9-2.6,3-6.2,2.1-9.7c-0.9-3.8-1.9-7-0.2-10.8c1.5-3.4,4.2-5.9,6.8-8.5
			c8.6-8.5,11.2-18,12.9-29.7c0.3-1.9-2.6-2.7-2.9-0.8c-0.8,5.3-1.5,10.6-3.3,15.6c-2.3,6.4-6.8,10.5-11.3,15.3
			c-2.9,3-5.5,6.5-6.1,10.7c-0.8,4.9,4.1,12-0.1,15.8C106.7,78.7,108.8,80.8,110.2,79.5L110.2,79.5z"/>
	</g>
</g>
<g>
	<g>
		<path fill="#D4D6D6" d="M120.8,77.2c2-1.9,2.5-4.2,2-6.9c-0.6-3.5-2-5.9-0.4-9.6c1.3-2.9,3.6-5,5.8-7.2c6.6-6.6,8.6-14.4,9.9-23.4
			c0.3-1.9-2.6-2.7-2.9-0.8c-0.6,4.1-1.2,8.4-2.6,12.3c-1.8,5.1-5.3,8.3-8.9,12.1c-2.4,2.6-4.7,5.5-5.2,9.1
			c-0.5,3.8,3.3,9.3,0.1,12.3C117.3,76.4,119.4,78.5,120.8,77.2L120.8,77.2z"/>
	</g>
</g>
<rect x="207.1" y="118" fill="#FF7BAC" width="240.2" height="68.7"/>
<polyline fill="#FF7BAC" points="484,91 461.7,37 227,37 258,91 "/>
<polyline fill="#FF7BAC" points="447.3,186.7 484,164.9 484,91 448.5,118 484,91 258,91 207.1,118 "/>
<path fill="#FBB57F" d="M408.2,88.1c-11.7-2.4-23.2,5.2-25.5,16.9c-2.4,11.7,5.2,23.2,16.9,25.5c11.7,2.4,23.2-5.2,25.5-16.9
	C427.5,101.9,419.9,90.5,408.2,88.1z M403.5,114.2c-6.4-0.7-5.3-10.7,1.1-9.9C411,105,409.9,114.9,403.5,114.2z"/>
<path fill="#CC8656" d="M423.6,107.8l-1.1-5.4c-0.5-2.3-1.7-4.5-3.4-6.1l-3.9-3.7c-1.8-1.7-4.1-2.8-6.6-3.1l-5-0.6
	c-2.5-0.3-5,0.2-7.1,1.5l-4.6,2.7c-2.1,1.2-3.7,3-4.7,5.2l-2.3,5.1c-1,2.2-1.3,4.6-0.8,7l1.1,5.4c0.5,2.3,1.7,4.5,3.4,6.1l3.9,3.7
	c1.8,1.7,4.1,2.8,6.6,3l5.1,0.6c2.5,0.3,5-0.2,7.1-1.5l4.6-2.7c2.1-1.2,3.7-3,4.7-5.2l2.3-5.1C423.8,112.6,424.1,110.2,423.6,107.8z
	 M403.5,114.2c-6.4-0.7-5.3-10.7,1.1-9.9C411,105,409.9,114.9,403.5,114.2z"/>
<polyline fill="#F4DDC1" points="227,37 221.5,57.9 453.1,59.5 461.7,37 "/>
<path fill="#FBB57F" d="M284.1,85.4c-11.7-2.4-23.2,5.2-25.5,16.9c-2.4,11.7,5.2,23.2,16.9,25.5c11.7,2.4,23.2-5.2,25.5-16.9
	C303.4,99.2,295.8,87.8,284.1,85.4z M279.4,111.5c-6.4-0.7-5.3-10.7,1.1-9.9C286.9,102.3,285.8,112.2,279.4,111.5z"/>
<path fill="#665244" d="M299.6,105.1l-1.1-5.4c-0.5-2.3-1.7-4.5-3.4-6.1l-3.9-3.7c-1.8-1.7-4.1-2.8-6.6-3.1l-5-0.6
	c-2.5-0.3-5,0.2-7.1,1.5l-4.6,2.7c-2.1,1.2-3.7,3-4.7,5.2l-2.3,5.1c-1,2.2-1.3,4.6-0.8,7l1.1,5.4c0.5,2.3,1.7,4.5,3.4,6.1l3.9,3.7
	c1.8,1.7,4.1,2.8,6.6,3l5.1,0.6c2.5,0.3,5-0.2,7.1-1.5l4.6-2.7c2.1-1.2,3.7-3,4.7-5.2l2.3-5.1C299.8,109.9,300,107.5,299.6,105.1z
	 M279.4,111.5c-6.4-0.7-5.3-10.7,1.1-9.9C286.9,102.3,285.8,112.2,279.4,111.5z"/>
<path fill="none" stroke="#FBB57F" stroke-miterlimit="10" d="M280.6,101.1c-3-0.3-5.7,1.8-6,4.8c-0.3,3,1.8,5.7,4.8,6
	c3,0.3,5.7-1.8,6-4.8C285.7,104.2,283.6,101.5,280.6,101.1z M279.4,111.5c-6.4-0.7-5.3-10.7,1.1-9.9
	C286.9,102.3,285.8,112.2,279.4,111.5z"/>
<g>
	<g>
		<path fill="#AADFF1" d="M291.7,112.4c0.1-1.2,0.3-2.3,0.4-3.5c0.1-0.5-0.7-0.5-0.8,0c-0.1,1.2-0.3,2.3-0.4,3.5
			C290.9,112.8,291.7,112.8,291.7,112.4L291.7,112.4z"/>
	</g>
</g>
<g>
	<g>
		<path fill="#39B54A" d="M289.5,118.4c-1-0.3-1.9-0.9-2.7-1.6c-0.4-0.3-0.9,0.2-0.5,0.5c0.9,0.8,1.9,1.4,3.1,1.8
			C289.7,119.2,289.9,118.5,289.5,118.4L289.5,118.4z"/>
	</g>
</g>
<g>
	<g>
		<path fill="#39B54A" d="M269.8,117.3c0-1,0.3-2,0.8-2.8c0.3-0.4-0.4-0.8-0.6-0.4c-0.6,1-0.9,2.1-1,3.2
			C269.1,117.7,269.8,117.7,269.8,117.3L269.8,117.3z"/>
	</g>
</g>
<g>
	<g>
		<path fill="#39B54A" d="M287.1,102.1c0.6-0.3,1.2-0.5,1.8-0.8c0.4-0.2,0.1-0.8-0.4-0.6c-0.6,0.3-1.2,0.5-1.8,0.8
			C286.3,101.6,286.6,102.3,287.1,102.1L287.1,102.1z"/>
	</g>
</g>
<g>
	<g>
		<path fill="#E81A4B" d="M281.2,121.1c0.1-0.7,0.1-1.4-0.1-2.1c-0.1-0.5-0.8-0.3-0.7,0.2c0.1,0.5,0.2,1.1,0.1,1.7
			C280.4,121.3,281.2,121.6,281.2,121.1L281.2,121.1z"/>
	</g>
</g>
<g>
	<g>
		<path fill="#E81A4B" d="M266.2,111.3c0.5-0.2,1.1-0.3,1.7-0.3c0.5,0,0.5-0.7,0-0.8c-0.7-0.1-1.4,0.1-2.1,0.4
			C265.4,110.9,265.8,111.5,266.2,111.3L266.2,111.3z"/>
	</g>
</g>
<g>
	<g>
		<path fill="#E81A4B" d="M290.8,106.6c0.4-0.7,0.9-1.3,1.5-1.9c0.3-0.3-0.2-0.9-0.5-0.5c-0.6,0.6-1.1,1.3-1.6,2
			C289.9,106.6,290.5,107,290.8,106.6L290.8,106.6z"/>
	</g>
</g>
<g>
	<g>
		<path fill="#FFF200" d="M294.7,108.4c0.7,0.4,1.2,0.9,1.7,1.4c0.3,0.4,0.8-0.2,0.5-0.5c-0.5-0.6-1.2-1.1-1.9-1.6
			C294.6,107.5,294.2,108.1,294.7,108.4L294.7,108.4z"/>
	</g>
</g>
<g>
	<g>
		<path fill="#FFC60B" d="M280.7,116.4c0.5,0.1,0.9,0.1,1.4,0.2c0.5,0.1,0.5-0.7,0-0.8c-0.5-0.1-0.9-0.1-1.4-0.2
			C280.2,115.5,280.2,116.3,280.7,116.4L280.7,116.4z"/>
	</g>
</g>
<g>
	<g>
		<path fill="#9B85BE" d="M293.7,116.8c0-0.7,0.1-1.4,0.3-2.1c0.1-0.5-0.6-0.7-0.7-0.2c-0.2,0.8-0.4,1.5-0.4,2.3
			C292.9,117.3,293.6,117.3,293.7,116.8L293.7,116.8z"/>
	</g>
</g>
<g>
	<g>
		<path fill="#9B85BE" d="M264.3,115.4c0.3,0.4,0.7,0.8,1,1.3c0.3,0.4,0.8-0.2,0.5-0.5c-0.3-0.4-0.7-0.8-1-1.3
			C264.5,114.5,264,115,264.3,115.4L264.3,115.4z"/>
	</g>
</g>
<g>
	<g>
		<path fill="#F7A5AA" d="M295,101.3c0.5,0.3,1.1,0.6,1.6,0.9c0.4,0.2,0.8-0.4,0.4-0.6c-0.5-0.3-1.1-0.6-1.6-0.9
			C295,100.4,294.6,101.1,295,101.3L295,101.3z"/>
	</g>
</g>
<g>
	<g>
		<path fill="#E07F48" d="M286.8,111.9c0,1.1,0.3,2.1,0.9,3c0.3,0.4,0.9,0,0.6-0.4c-0.5-0.8-0.8-1.7-0.8-2.6
			C287.5,111.4,286.8,111.4,286.8,111.9L286.8,111.9z"/>
	</g>
</g>
<path fill="#FBB57F" d="M325.1,88.4c-11.7-2.4-23.2,5.2-25.5,16.9c-2.4,11.7,5.2,23.2,16.9,25.5c11.7,2.4,23.2-5.2,25.5-16.9
	C344.4,102.2,336.8,90.8,325.1,88.4z M320.4,114.5c-6.4-0.7-5.3-10.7,1.1-9.9C327.9,105.3,326.8,115.2,320.4,114.5z"/>
<path fill="#FCEC98" d="M340.6,108.1l-1.1-5.4c-0.5-2.3-1.7-4.5-3.4-6.1l-3.9-3.7c-1.8-1.7-4.1-2.8-6.6-3.1l-5-0.6
	c-2.5-0.3-5,0.2-7.1,1.5l-4.6,2.7c-2.1,1.2-3.7,3-4.7,5.2l-2.3,5.1c-1,2.2-1.3,4.6-0.8,7l1.1,5.4c0.5,2.3,1.7,4.5,3.4,6.1l3.9,3.7
	c1.8,1.7,4.1,2.8,6.6,3l5.1,0.6c2.5,0.3,5-0.2,7.1-1.5l4.6-2.7c2.1-1.2,3.7-3,4.7-5.2l2.3-5.1C340.8,112.9,341,110.5,340.6,108.1z
	 M320.4,114.5c-6.4-0.7-5.3-10.7,1.1-9.9C327.9,105.3,326.8,115.2,320.4,114.5z"/>
<path fill="none" stroke="#FBB57F" stroke-miterlimit="10" d="M321.6,104.1c-3-0.3-5.7,1.8-6,4.8c-0.3,3,1.8,5.7,4.8,6
	c3,0.3,5.7-1.8,6-4.8C326.7,107.2,324.6,104.5,321.6,104.1z M320.4,114.5c-6.4-0.7-5.3-10.7,1.1-9.9
	C327.9,105.3,326.8,115.2,320.4,114.5z"/>
<g>
	<g>
		<path fill="#AADFF1" d="M326.4,95.9c0.8,0.2,1.6,0.6,2.3,1c0.4,0.2,0.8-0.4,0.4-0.6c-0.8-0.5-1.6-0.8-2.5-1.1
			C326.2,95.1,326,95.8,326.4,95.9L326.4,95.9z"/>
	</g>
</g>
<g>
	<g>
		<path fill="#AADFF1" d="M308.3,109c0.3-1.1,0.8-2.1,1.4-3c0.2-0.4-0.4-0.8-0.6-0.4c-0.6,1-1.1,2.1-1.4,3.2
			C307.4,109.2,308.1,109.4,308.3,109L308.3,109z"/>
	</g>
</g>
<g>
	<g>
		<path fill="#AADFF1" d="M312.7,94c1,0.1,1.9,0.4,2.8,0.9c0.4,0.2,0.8-0.4,0.4-0.6c-1-0.5-2.1-0.8-3.2-1
			C312.2,93.2,312.2,93.9,312.7,94L312.7,94z"/>
	</g>
</g>
<g>
	<g>
		<path fill="#AADFF1" d="M332.7,115.4c0.1-1.2,0.3-2.3,0.4-3.5c0.1-0.5-0.7-0.5-0.8,0c-0.1,1.2-0.3,2.3-0.4,3.5
			C331.9,115.8,332.7,115.8,332.7,115.4L332.7,115.4z"/>
	</g>
</g>
<g>
	<g>
		<path fill="#39B54A" d="M330.5,121.4c-1-0.3-1.9-0.9-2.7-1.6c-0.4-0.3-0.9,0.2-0.5,0.5c0.9,0.8,1.9,1.4,3.1,1.8
			C330.7,122.2,330.9,121.5,330.5,121.4L330.5,121.4z"/>
	</g>
</g>
<g>
	<g>
		<path fill="#39B54A" d="M310.8,120.3c0-1,0.3-2,0.8-2.8c0.3-0.4-0.4-0.8-0.6-0.4c-0.6,1-0.9,2.1-1,3.2
			C310.1,120.7,310.8,120.7,310.8,120.3L310.8,120.3z"/>
	</g>
</g>
<g>
	<g>
		<path fill="#39B54A" d="M328.1,105.1c0.6-0.3,1.2-0.5,1.8-0.8c0.4-0.2,0.1-0.8-0.4-0.6c-0.6,0.3-1.2,0.5-1.8,0.8
			C327.3,104.6,327.6,105.3,328.1,105.1L328.1,105.1z"/>
	</g>
</g>
<g>
	<g>
		<path fill="#F59DB2" d="M319.8,95.5c-0.1,0.6-0.1,1.2-0.2,1.8c-0.1,0.5,0.7,0.5,0.8,0c0.1-0.6,0.1-1.2,0.2-1.8
			C320.6,95,319.8,95,319.8,95.5L319.8,95.5z"/>
	</g>
</g>
<g>
	<g>
		<path fill="#F59DB2" d="M309.2,101.2c0.8-0.4,1.5-0.9,2.3-1.3c0.4-0.2,0-0.9-0.4-0.6c-0.8,0.4-1.5,0.9-2.3,1.3
			C308.4,100.8,308.7,101.4,309.2,101.2L309.2,101.2z"/>
	</g>
</g>
<g>
	<g>
		<path fill="#E81A4B" d="M322.2,124.1c0.1-0.7,0.1-1.4-0.1-2.1c-0.1-0.5-0.8-0.3-0.7,0.2c0.1,0.5,0.2,1.1,0.1,1.7
			C321.4,124.3,322.2,124.6,322.2,124.1L322.2,124.1z"/>
	</g>
</g>
<g>
	<g>
		<path fill="#E81A4B" d="M307.2,114.3c0.5-0.2,1.1-0.3,1.7-0.3c0.5,0,0.5-0.7,0-0.8c-0.7-0.1-1.4,0.1-2.1,0.4
			C306.4,113.9,306.8,114.5,307.2,114.3L307.2,114.3z"/>
	</g>
</g>
<g>
	<g>
		<path fill="#E81A4B" d="M331.8,109.6c0.4-0.7,0.9-1.3,1.5-1.9c0.3-0.3-0.2-0.9-0.5-0.5c-0.6,0.6-1.1,1.3-1.6,2
			C330.9,109.6,331.5,110,331.8,109.6L331.8,109.6z"/>
	</g>
</g>
<g>
	<g>
		<path fill="#FFF200" d="M323.1,98.4c-0.1,0.5-0.1,1-0.2,1.5c-0.1,0.5,0.7,0.5,0.8,0c0.1-0.5,0.1-1,0.2-1.5
			C323.9,97.9,323.2,97.9,323.1,98.4L323.1,98.4z"/>
	</g>
</g>
<g>
	<g>
		<path fill="#FFF200" d="M313.5,102.3c0.9,0.1,1.9,0.2,2.8,0c0.5-0.1,0.5-0.8,0-0.8c-0.9,0.1-1.7,0.1-2.6,0
			C313.2,101.5,313,102.3,313.5,102.3L313.5,102.3z"/>
	</g>
</g>
<g>
	<g>
		<path fill="#FFF200" d="M303.5,107.3c0-0.5,0.1-1.1,0.3-1.6c0.2-0.5-0.6-0.6-0.7-0.2c-0.2,0.6-0.3,1.2-0.3,1.8
			C302.8,107.8,303.5,107.8,303.5,107.3L303.5,107.3z"/>
	</g>
</g>
<g>
	<g>
		<path fill="#FFF200" d="M335.7,111.4c0.7,0.4,1.2,0.9,1.7,1.4c0.3,0.4,0.8-0.2,0.5-0.5c-0.5-0.6-1.2-1.1-1.9-1.6
			C335.6,110.5,335.2,111.1,335.7,111.4L335.7,111.4z"/>
	</g>
</g>
<g>
	<g>
		<path fill="#FFC60B" d="M321.7,119.4c0.5,0.1,0.9,0.1,1.4,0.2c0.5,0.1,0.5-0.7,0-0.8c-0.5-0.1-0.9-0.1-1.4-0.2
			C321.2,118.5,321.2,119.3,321.7,119.4L321.7,119.4z"/>
	</g>
</g>
<g>
	<g>
		<path fill="#9B85BE" d="M334.7,119.8c0-0.7,0.1-1.4,0.3-2.1c0.1-0.5-0.6-0.7-0.7-0.2c-0.2,0.8-0.4,1.5-0.4,2.3
			C333.9,120.3,334.6,120.3,334.7,119.8L334.7,119.8z"/>
	</g>
</g>
<g>
	<g>
		<path fill="#9B85BE" d="M315.9,120.6c0.1-0.6,0.1-1.2,0.2-1.8c0.1-0.5-0.7-0.5-0.8,0c-0.1,0.6-0.1,1.2-0.2,1.8
			C315.1,121,315.9,121,315.9,120.6L315.9,120.6z"/>
	</g>
</g>
<g>
	<g>
		<path fill="#9B85BE" d="M311,110.1c0.5,0.3,1.1,0.6,1.6,0.9c0.4,0.2,0.8-0.4,0.4-0.6c-0.5-0.3-1.1-0.6-1.6-0.9
			C311,109.3,310.6,109.9,311,110.1L311,110.1z"/>
	</g>
</g>
<g>
	<g>
		<path fill="#9B85BE" d="M305.3,118.4c0.3,0.4,0.7,0.8,1,1.3c0.3,0.4,0.8-0.2,0.5-0.5c-0.3-0.4-0.7-0.8-1-1.3
			C305.5,117.5,305,118,305.3,118.4L305.3,118.4z"/>
	</g>
</g>
<g>
	<g>
		<path fill="#00AEEF" d="M333,99.7c0.9,0.3,1.7,0.8,2.3,1.4c0.3,0.3,0.9-0.2,0.5-0.5c-0.8-0.7-1.7-1.3-2.7-1.6
			C332.7,98.8,332.5,99.5,333,99.7L333,99.7z"/>
	</g>
</g>
<g>
	<g>
		<path fill="#F7A5AA" d="M336,104.3c0.5,0.3,1.1,0.6,1.6,0.9c0.4,0.2,0.8-0.4,0.4-0.6c-0.5-0.3-1.1-0.6-1.6-0.9
			C336,103.4,335.6,104.1,336,104.3L336,104.3z"/>
	</g>
</g>
<g>
	<g>
		<path fill="#E07F48" d="M321.1,93.7c0.6,0.1,1.2,0.1,1.8,0.2c0.5,0.1,0.5-0.7,0-0.8c-0.6-0.1-1.2-0.1-1.8-0.2
			C320.6,92.9,320.6,93.6,321.1,93.7L321.1,93.7z"/>
	</g>
</g>
<g>
	<g>
		<path fill="#E07F48" d="M327.8,114.9c0,1.1,0.3,2.1,0.9,3c0.3,0.4,0.9,0,0.6-0.4c-0.5-0.8-0.8-1.7-0.8-2.6
			C328.5,114.4,327.8,114.4,327.8,114.9L327.8,114.9z"/>
	</g>
</g>
<g>
	<path fill="#FBB57F" d="M367.1,88.4c-11.7-2.4-23.2,5.2-25.5,16.9c-2.4,11.7,5.2,23.2,16.9,25.5c11.7,2.4,23.2-5.2,25.5-16.9
		C386.4,102.2,378.8,90.8,367.1,88.4z M362.4,114.5c-6.4-0.7-5.3-10.7,1.1-9.9C369.9,105.3,368.8,115.2,362.4,114.5z"/>
	<path fill="#665244" d="M382.6,108.1l-1.1-5.4c-0.5-2.3-1.7-4.5-3.4-6.1l-3.9-3.7c-1.8-1.7-4.1-2.8-6.6-3.1l-5-0.6
		c-2.5-0.3-5,0.2-7.1,1.5l-4.6,2.7c-2.1,1.2-3.7,3-4.7,5.2l-2.3,5.1c-1,2.2-1.3,4.6-0.8,7l1.1,5.4c0.5,2.3,1.7,4.5,3.4,6.1l3.9,3.7
		c1.8,1.7,4.1,2.8,6.6,3l5.1,0.6c2.5,0.3,5-0.2,7.1-1.5l4.6-2.7c2.1-1.2,3.7-3,4.7-5.2l2.3-5.1C382.8,112.9,383,110.5,382.6,108.1z
		 M362.4,114.5c-6.4-0.7-5.3-10.7,1.1-9.9C369.9,105.3,368.8,115.2,362.4,114.5z"/>
	<path fill="none" stroke="#FBB57F" stroke-miterlimit="10" d="M363.6,104.1c-3-0.3-5.7,1.8-6,4.8c-0.3,3,1.8,5.7,4.8,6
		c3,0.3,5.7-1.8,6-4.8C368.7,107.2,366.6,104.5,363.6,104.1z M362.4,114.5c-6.4-0.7-5.3-10.7,1.1-9.9
		C369.9,105.3,368.8,115.2,362.4,114.5z"/>
	<g>
		<g>
			<path fill="#AADFF1" d="M368.4,95.9c0.8,0.2,1.6,0.6,2.3,1c0.4,0.2,0.8-0.4,0.4-0.6c-0.8-0.5-1.6-0.8-2.5-1.1
				C368.2,95.1,368,95.8,368.4,95.9L368.4,95.9z"/>
		</g>
	</g>
	<g>
		<g>
			<path fill="#AADFF1" d="M350.3,109c0.3-1.1,0.8-2.1,1.4-3c0.2-0.4-0.4-0.8-0.6-0.4c-0.6,1-1.1,2.1-1.4,3.2
				C349.4,109.2,350.1,109.4,350.3,109L350.3,109z"/>
		</g>
	</g>
	<g>
		<g>
			<path fill="#AADFF1" d="M354.7,94c1,0.1,1.9,0.4,2.8,0.9c0.4,0.2,0.8-0.4,0.4-0.6c-1-0.5-2.1-0.8-3.2-1
				C354.2,93.2,354.2,93.9,354.7,94L354.7,94z"/>
		</g>
	</g>
	<g>
		<g>
			<path fill="#AADFF1" d="M374.7,115.4c0.1-1.2,0.3-2.3,0.4-3.5c0.1-0.5-0.7-0.5-0.8,0c-0.1,1.2-0.3,2.3-0.4,3.5
				C373.9,115.8,374.7,115.8,374.7,115.4L374.7,115.4z"/>
		</g>
	</g>
	<g>
		<g>
			<path fill="#39B54A" d="M372.5,121.4c-1-0.3-1.9-0.9-2.7-1.6c-0.4-0.3-0.9,0.2-0.5,0.5c0.9,0.8,1.9,1.4,3.1,1.8
				C372.7,122.2,372.9,121.5,372.5,121.4L372.5,121.4z"/>
		</g>
	</g>
	<g>
		<g>
			<path fill="#39B54A" d="M352.8,120.3c0-1,0.3-2,0.8-2.8c0.3-0.4-0.4-0.8-0.6-0.4c-0.6,1-0.9,2.1-1,3.2
				C352.1,120.7,352.8,120.7,352.8,120.3L352.8,120.3z"/>
		</g>
	</g>
	<g>
		<g>
			<path fill="#39B54A" d="M370.1,105.1c0.6-0.3,1.2-0.5,1.8-0.8c0.4-0.2,0.1-0.8-0.4-0.6c-0.6,0.3-1.2,0.5-1.8,0.8
				C369.3,104.6,369.6,105.3,370.1,105.1L370.1,105.1z"/>
		</g>
	</g>
	<g>
		<g>
			<path fill="#F59DB2" d="M361.8,95.5c-0.1,0.6-0.1,1.2-0.2,1.8c-0.1,0.5,0.7,0.5,0.8,0c0.1-0.6,0.1-1.2,0.2-1.8
				C362.6,95,361.8,95,361.8,95.5L361.8,95.5z"/>
		</g>
	</g>
	<g>
		<g>
			<path fill="#F59DB2" d="M351.2,101.2c0.8-0.4,1.5-0.9,2.3-1.3c0.4-0.2,0-0.9-0.4-0.6c-0.8,0.4-1.5,0.9-2.3,1.3
				C350.4,100.8,350.7,101.4,351.2,101.2L351.2,101.2z"/>
		</g>
	</g>
	<g>
		<g>
			<path fill="#E81A4B" d="M364.2,124.1c0.1-0.7,0.1-1.4-0.1-2.1c-0.1-0.5-0.8-0.3-0.7,0.2c0.1,0.5,0.2,1.1,0.1,1.7
				C363.4,124.3,364.2,124.6,364.2,124.1L364.2,124.1z"/>
		</g>
	</g>
	<g>
		<g>
			<path fill="#E81A4B" d="M349.2,114.3c0.5-0.2,1.1-0.3,1.7-0.3c0.5,0,0.5-0.7,0-0.8c-0.7-0.1-1.4,0.1-2.1,0.4
				C348.4,113.9,348.8,114.5,349.2,114.3L349.2,114.3z"/>
		</g>
	</g>
	<g>
		<g>
			<path fill="#E81A4B" d="M373.8,109.6c0.4-0.7,0.9-1.3,1.5-1.9c0.3-0.3-0.2-0.9-0.5-0.5c-0.6,0.6-1.1,1.3-1.6,2
				C372.9,109.6,373.5,110,373.8,109.6L373.8,109.6z"/>
		</g>
	</g>
	<g>
		<g>
			<path fill="#FFF200" d="M365.1,98.4c-0.1,0.5-0.1,1-0.2,1.5c-0.1,0.5,0.7,0.5,0.8,0c0.1-0.5,0.1-1,0.2-1.5
				C365.9,97.9,365.2,97.9,365.1,98.4L365.1,98.4z"/>
		</g>
	</g>
	<g>
		<g>
			<path fill="#FFF200" d="M355.5,102.3c0.9,0.1,1.9,0.2,2.8,0c0.5-0.1,0.5-0.8,0-0.8c-0.9,0.1-1.7,0.1-2.6,0
				C355.2,101.5,355,102.3,355.5,102.3L355.5,102.3z"/>
		</g>
	</g>
	<g>
		<g>
			<path fill="#FFF200" d="M345.5,107.3c0-0.5,0.1-1.1,0.3-1.6c0.2-0.5-0.6-0.6-0.7-0.2c-0.2,0.6-0.3,1.2-0.3,1.8
				C344.8,107.8,345.5,107.8,345.5,107.3L345.5,107.3z"/>
		</g>
	</g>
	<g>
		<g>
			<path fill="#FFF200" d="M377.7,111.4c0.7,0.4,1.2,0.9,1.7,1.4c0.3,0.4,0.8-0.2,0.5-0.5c-0.5-0.6-1.2-1.1-1.9-1.6
				C377.6,110.5,377.2,111.1,377.7,111.4L377.7,111.4z"/>
		</g>
	</g>
	<g>
		<g>
			<path fill="#FFC60B" d="M363.7,119.4c0.5,0.1,0.9,0.1,1.4,0.2c0.5,0.1,0.5-0.7,0-0.8c-0.5-0.1-0.9-0.1-1.4-0.2
				C363.2,118.5,363.2,119.3,363.7,119.4L363.7,119.4z"/>
		</g>
	</g>
	<g>
		<g>
			<path fill="#9B85BE" d="M376.7,119.8c0-0.7,0.1-1.4,0.3-2.1c0.1-0.5-0.6-0.7-0.7-0.2c-0.2,0.8-0.4,1.5-0.4,2.3
				C375.9,120.3,376.6,120.3,376.7,119.8L376.7,119.8z"/>
		</g>
	</g>
	<g>
		<g>
			<path fill="#9B85BE" d="M357.9,120.6c0.1-0.6,0.1-1.2,0.2-1.8c0.1-0.5-0.7-0.5-0.8,0c-0.1,0.6-0.1,1.2-0.2,1.8
				C357.1,121,357.9,121,357.9,120.6L357.9,120.6z"/>
		</g>
	</g>
	<g>
		<g>
			<path fill="#9B85BE" d="M353,110.1c0.5,0.3,1.1,0.6,1.6,0.9c0.4,0.2,0.8-0.4,0.4-0.6c-0.5-0.3-1.1-0.6-1.6-0.9
				C353,109.3,352.6,109.9,353,110.1L353,110.1z"/>
		</g>
	</g>
	<g>
		<g>
			<path fill="#9B85BE" d="M347.3,118.4c0.3,0.4,0.7,0.8,1,1.3c0.3,0.4,0.8-0.2,0.5-0.5c-0.3-0.4-0.7-0.8-1-1.3
				C347.5,117.5,347,118,347.3,118.4L347.3,118.4z"/>
		</g>
	</g>
	<g>
		<g>
			<path fill="#00AEEF" d="M375,99.7c0.9,0.3,1.7,0.8,2.3,1.4c0.3,0.3,0.9-0.2,0.5-0.5c-0.8-0.7-1.7-1.3-2.7-1.6
				C374.7,98.8,374.5,99.5,375,99.7L375,99.7z"/>
		</g>
	</g>
	<g>
		<g>
			<path fill="#F7A5AA" d="M378,104.3c0.5,0.3,1.1,0.6,1.6,0.9c0.4,0.2,0.8-0.4,0.4-0.6c-0.5-0.3-1.1-0.6-1.6-0.9
				C378,103.4,377.6,104.1,378,104.3L378,104.3z"/>
		</g>
	</g>
	<g>
		<g>
			<path fill="#E07F48" d="M363.1,93.7c0.6,0.1,1.2,0.1,1.8,0.2c0.5,0.1,0.5-0.7,0-0.8c-0.6-0.1-1.2-0.1-1.8-0.2
				C362.6,92.9,362.6,93.6,363.1,93.7L363.1,93.7z"/>
		</g>
	</g>
	<g>
		<g>
			<path fill="#E07F48" d="M369.8,114.9c0,1.1,0.3,2.1,0.9,3c0.3,0.4,0.9,0,0.6-0.4c-0.5-0.8-0.8-1.7-0.8-2.6
				C370.5,114.4,369.8,114.4,369.8,114.9L369.8,114.9z"/>
		</g>
	</g>
</g>
<g>
	<path fill="#FBB57F" d="M448.1,88.4c-11.7-2.4-23.2,5.2-25.5,16.9c-2.4,11.7,5.2,23.2,16.9,25.5c11.7,2.4,23.2-5.2,25.5-16.9
		C467.4,102.2,459.8,90.8,448.1,88.4z M443.4,114.5c-6.4-0.7-5.3-10.7,1.1-9.9C450.9,105.3,449.8,115.2,443.4,114.5z"/>
	<path fill="#665244" d="M463.6,108.1l-1.1-5.4c-0.5-2.3-1.7-4.5-3.4-6.1l-3.9-3.7c-1.8-1.7-4.1-2.8-6.6-3.1l-5-0.6
		c-2.5-0.3-5,0.2-7.1,1.5l-4.6,2.7c-2.1,1.2-3.7,3-4.7,5.2l-2.3,5.1c-1,2.2-1.3,4.6-0.8,7l1.1,5.4c0.5,2.3,1.7,4.5,3.4,6.1l3.9,3.7
		c1.8,1.7,4.1,2.8,6.6,3l5.1,0.6c2.5,0.3,5-0.2,7.1-1.5l4.6-2.7c2.1-1.2,3.7-3,4.7-5.2l2.3-5.1C463.8,112.9,464,110.5,463.6,108.1z
		 M443.4,114.5c-6.4-0.7-5.3-10.7,1.1-9.9C450.9,105.3,449.8,115.2,443.4,114.5z"/>
	<path fill="none" stroke="#FBB57F" stroke-miterlimit="10" d="M444.6,104.1c-3-0.3-5.7,1.8-6,4.8c-0.3,3,1.8,5.7,4.8,6
		c3,0.3,5.7-1.8,6-4.8C449.7,107.2,447.6,104.5,444.6,104.1z M443.4,114.5c-6.4-0.7-5.3-10.7,1.1-9.9
		C450.9,105.3,449.8,115.2,443.4,114.5z"/>
	<g>
		<g>
			<path fill="#AADFF1" d="M449.4,95.9c0.8,0.2,1.6,0.6,2.3,1c0.4,0.2,0.8-0.4,0.4-0.6c-0.8-0.5-1.6-0.8-2.5-1.1
				C449.2,95.1,449,95.8,449.4,95.9L449.4,95.9z"/>
		</g>
	</g>
	<g>
		<g>
			<path fill="#AADFF1" d="M431.3,109c0.3-1.1,0.8-2.1,1.4-3c0.2-0.4-0.4-0.8-0.6-0.4c-0.6,1-1.1,2.1-1.4,3.2
				C430.4,109.2,431.1,109.4,431.3,109L431.3,109z"/>
		</g>
	</g>
	<g>
		<g>
			<path fill="#AADFF1" d="M435.7,94c1,0.1,1.9,0.4,2.8,0.9c0.4,0.2,0.8-0.4,0.4-0.6c-1-0.5-2.1-0.8-3.2-1
				C435.2,93.2,435.2,93.9,435.7,94L435.7,94z"/>
		</g>
	</g>
	<g>
		<g>
			<path fill="#AADFF1" d="M455.7,115.4c0.1-1.2,0.3-2.3,0.4-3.5c0.1-0.5-0.7-0.5-0.8,0c-0.1,1.2-0.3,2.3-0.4,3.5
				C454.9,115.8,455.7,115.8,455.7,115.4L455.7,115.4z"/>
		</g>
	</g>
	<g>
		<g>
			<path fill="#39B54A" d="M453.5,121.4c-1-0.3-1.9-0.9-2.7-1.6c-0.4-0.3-0.9,0.2-0.5,0.5c0.9,0.8,1.9,1.4,3.1,1.8
				C453.7,122.2,453.9,121.5,453.5,121.4L453.5,121.4z"/>
		</g>
	</g>
	<g>
		<g>
			<path fill="#39B54A" d="M433.8,120.3c0-1,0.3-2,0.8-2.8c0.3-0.4-0.4-0.8-0.6-0.4c-0.6,1-0.9,2.1-1,3.2
				C433.1,120.7,433.8,120.7,433.8,120.3L433.8,120.3z"/>
		</g>
	</g>
	<g>
		<g>
			<path fill="#39B54A" d="M451.1,105.1c0.6-0.3,1.2-0.5,1.8-0.8c0.4-0.2,0.1-0.8-0.4-0.6c-0.6,0.3-1.2,0.5-1.8,0.8
				C450.3,104.6,450.6,105.3,451.1,105.1L451.1,105.1z"/>
		</g>
	</g>
	<g>
		<g>
			<path fill="#F59DB2" d="M442.8,95.5c-0.1,0.6-0.1,1.2-0.2,1.8c-0.1,0.5,0.7,0.5,0.8,0c0.1-0.6,0.1-1.2,0.2-1.8
				C443.6,95,442.8,95,442.8,95.5L442.8,95.5z"/>
		</g>
	</g>
	<g>
		<g>
			<path fill="#F59DB2" d="M432.2,101.2c0.8-0.4,1.5-0.9,2.3-1.3c0.4-0.2,0-0.9-0.4-0.6c-0.8,0.4-1.5,0.9-2.3,1.3
				C431.4,100.8,431.7,101.4,432.2,101.2L432.2,101.2z"/>
		</g>
	</g>
	<g>
		<g>
			<path fill="#E81A4B" d="M445.2,124.1c0.1-0.7,0.1-1.4-0.1-2.1c-0.1-0.5-0.8-0.3-0.7,0.2c0.1,0.5,0.2,1.1,0.1,1.7
				C444.4,124.3,445.2,124.6,445.2,124.1L445.2,124.1z"/>
		</g>
	</g>
	<g>
		<g>
			<path fill="#E81A4B" d="M430.2,114.3c0.5-0.2,1.1-0.3,1.7-0.3c0.5,0,0.5-0.7,0-0.8c-0.7-0.1-1.4,0.1-2.1,0.4
				C429.4,113.9,429.8,114.5,430.2,114.3L430.2,114.3z"/>
		</g>
	</g>
	<g>
		<g>
			<path fill="#E81A4B" d="M454.8,109.6c0.4-0.7,0.9-1.3,1.5-1.9c0.3-0.3-0.2-0.9-0.5-0.5c-0.6,0.6-1.1,1.3-1.6,2
				C453.9,109.6,454.5,110,454.8,109.6L454.8,109.6z"/>
		</g>
	</g>
	<g>
		<g>
			<path fill="#FFF200" d="M446.1,98.4c-0.1,0.5-0.1,1-0.2,1.5c-0.1,0.5,0.7,0.5,0.8,0c0.1-0.5,0.1-1,0.2-1.5
				C446.9,97.9,446.2,97.9,446.1,98.4L446.1,98.4z"/>
		</g>
	</g>
	<g>
		<g>
			<path fill="#FFF200" d="M436.5,102.3c0.9,0.1,1.9,0.2,2.8,0c0.5-0.1,0.5-0.8,0-0.8c-0.9,0.1-1.7,0.1-2.6,0
				C436.2,101.5,436,102.3,436.5,102.3L436.5,102.3z"/>
		</g>
	</g>
	<g>
		<g>
			<path fill="#FFF200" d="M426.5,107.3c0-0.5,0.1-1.1,0.3-1.6c0.2-0.5-0.6-0.6-0.7-0.2c-0.2,0.6-0.3,1.2-0.3,1.8
				C425.8,107.8,426.5,107.8,426.5,107.3L426.5,107.3z"/>
		</g>
	</g>
	<g>
		<g>
			<path fill="#FFF200" d="M458.7,111.4c0.7,0.4,1.2,0.9,1.7,1.4c0.3,0.4,0.8-0.2,0.5-0.5c-0.5-0.6-1.2-1.1-1.9-1.6
				C458.6,110.5,458.2,111.1,458.7,111.4L458.7,111.4z"/>
		</g>
	</g>
	<g>
		<g>
			<path fill="#FFC60B" d="M444.7,119.4c0.5,0.1,0.9,0.1,1.4,0.2c0.5,0.1,0.5-0.7,0-0.8c-0.5-0.1-0.9-0.1-1.4-0.2
				C444.2,118.5,444.2,119.3,444.7,119.4L444.7,119.4z"/>
		</g>
	</g>
	<g>
		<g>
			<path fill="#9B85BE" d="M457.7,119.8c0-0.7,0.1-1.4,0.3-2.1c0.1-0.5-0.6-0.7-0.7-0.2c-0.2,0.8-0.4,1.5-0.4,2.3
				C456.9,120.3,457.6,120.3,457.7,119.8L457.7,119.8z"/>
		</g>
	</g>
	<g>
		<g>
			<path fill="#9B85BE" d="M438.9,120.6c0.1-0.6,0.1-1.2,0.2-1.8c0.1-0.5-0.7-0.5-0.8,0c-0.1,0.6-0.1,1.2-0.2,1.8
				C438.1,121,438.9,121,438.9,120.6L438.9,120.6z"/>
		</g>
	</g>
	<g>
		<g>
			<path fill="#9B85BE" d="M434,110.1c0.5,0.3,1.1,0.6,1.6,0.9c0.4,0.2,0.8-0.4,0.4-0.6c-0.5-0.3-1.1-0.6-1.6-0.9
				C434,109.3,433.6,109.9,434,110.1L434,110.1z"/>
		</g>
	</g>
	<g>
		<g>
			<path fill="#9B85BE" d="M428.3,118.4c0.3,0.4,0.7,0.8,1,1.3c0.3,0.4,0.8-0.2,0.5-0.5c-0.3-0.4-0.7-0.8-1-1.3
				C428.5,117.5,428,118,428.3,118.4L428.3,118.4z"/>
		</g>
	</g>
	<g>
		<g>
			<path fill="#00AEEF" d="M456,99.7c0.9,0.3,1.7,0.8,2.3,1.4c0.3,0.3,0.9-0.2,0.5-0.5c-0.8-0.7-1.7-1.3-2.7-1.6
				C455.7,98.8,455.5,99.5,456,99.7L456,99.7z"/>
		</g>
	</g>
	<g>
		<g>
			<path fill="#F7A5AA" d="M459,104.3c0.5,0.3,1.1,0.6,1.6,0.9c0.4,0.2,0.8-0.4,0.4-0.6c-0.5-0.3-1.1-0.6-1.6-0.9
				C459,103.4,458.6,104.1,459,104.3L459,104.3z"/>
		</g>
	</g>
	<g>
		<g>
			<path fill="#E07F48" d="M444.1,93.7c0.6,0.1,1.2,0.1,1.8,0.2c0.5,0.1,0.5-0.7,0-0.8c-0.6-0.1-1.2-0.1-1.8-0.2
				C443.6,92.9,443.6,93.6,444.1,93.7L444.1,93.7z"/>
		</g>
	</g>
	<g>
		<g>
			<path fill="#E07F48" d="M450.8,114.9c0,1.1,0.3,2.1,0.9,3c0.3,0.4,0.9,0,0.6-0.4c-0.5-0.8-0.8-1.7-0.8-2.6
				C451.5,114.4,450.8,114.4,450.8,114.9L450.8,114.9z"/>
		</g>
	</g>
</g>
<g>
	<g>
		<path fill="#E81A4B" d="M234.1,123.8c0.4,0.1,0.8,0.3,1.2,0.4c0.5,0.1,0.7-0.6,0.2-0.7c-0.4-0.1-0.8-0.3-1.2-0.4
			C233.8,122.9,233.6,123.7,234.1,123.8L234.1,123.8z"/>
	</g>
</g>
<g>
	<g>
		<path fill="#E81A4B" d="M232.6,129.6c0.2,0.1,0.4,0.1,0.6,0.2c0.5,0.1,0.7-0.6,0.2-0.7c-0.2-0.1-0.4-0.1-0.6-0.2
			C232.3,128.8,232.1,129.5,232.6,129.6L232.6,129.6z"/>
	</g>
</g>
<g>
	<path fill="#FBB57F" d="M255.1,99.4c-11.7-2.4-23.2,5.2-25.5,16.9c-2.4,11.7,5.2,23.2,16.9,25.5c11.7,2.4,23.2-5.2,25.5-16.9
		C274.4,113.2,266.8,101.8,255.1,99.4z M250.4,125.5c-6.4-0.7-5.3-10.7,1.1-9.9C257.9,116.3,256.8,126.2,250.4,125.5z"/>
	<path fill="#665244" d="M270.6,119.1l-1.1-5.4c-0.5-2.3-1.7-4.5-3.4-6.1l-3.9-3.7c-1.8-1.7-4.1-2.8-6.6-3.1l-5-0.6
		c-2.5-0.3-5,0.2-7.1,1.5l-4.6,2.7c-2.1,1.2-3.7,3-4.7,5.2l-2.3,5.1c-1,2.2-1.3,4.6-0.8,7l1.1,5.4c0.5,2.3,1.7,4.5,3.4,6.1l3.9,3.7
		c1.8,1.7,4.1,2.8,6.6,3l5.1,0.6c2.5,0.3,5-0.2,7.1-1.5l4.6-2.7c2.1-1.2,3.7-3,4.7-5.2l2.3-5.1C270.8,123.9,271,121.5,270.6,119.1z
		 M250.4,125.5c-6.4-0.7-5.3-10.7,1.1-9.9C257.9,116.3,256.8,126.2,250.4,125.5z"/>
	<path fill="none" stroke="#FBB57F" stroke-miterlimit="10" d="M251.6,115.1c-3-0.3-5.7,1.8-6,4.8c-0.3,3,1.8,5.7,4.8,6
		c3,0.3,5.7-1.8,6-4.8C256.7,118.2,254.6,115.5,251.6,115.1z M250.4,125.5c-6.4-0.7-5.3-10.7,1.1-9.9
		C257.9,116.3,256.8,126.2,250.4,125.5z"/>
	<g>
		<g>
			<path fill="#AADFF1" d="M256.4,106.9c0.8,0.2,1.6,0.6,2.3,1c0.4,0.2,0.8-0.4,0.4-0.6c-0.8-0.5-1.6-0.8-2.5-1.1
				C256.2,106.1,256,106.8,256.4,106.9L256.4,106.9z"/>
		</g>
	</g>
	<g>
		<g>
			<path fill="#AADFF1" d="M238.3,120c0.3-1.1,0.8-2.1,1.4-3c0.2-0.4-0.4-0.8-0.6-0.4c-0.6,1-1.1,2.1-1.4,3.2
				C237.4,120.2,238.1,120.4,238.3,120L238.3,120z"/>
		</g>
	</g>
	<g>
		<g>
			<path fill="#AADFF1" d="M242.7,105c1,0.1,1.9,0.4,2.8,0.9c0.4,0.2,0.8-0.4,0.4-0.6c-1-0.5-2.1-0.8-3.2-1
				C242.2,104.2,242.2,104.9,242.7,105L242.7,105z"/>
		</g>
	</g>
	<g>
		<g>
			<path fill="#AADFF1" d="M262.7,126.4c0.1-1.2,0.3-2.3,0.4-3.5c0.1-0.5-0.7-0.5-0.8,0c-0.1,1.2-0.3,2.3-0.4,3.5
				C261.9,126.8,262.7,126.8,262.7,126.4L262.7,126.4z"/>
		</g>
	</g>
	<g>
		<g>
			<path fill="#39B54A" d="M260.5,132.4c-1-0.3-1.9-0.9-2.7-1.6c-0.4-0.3-0.9,0.2-0.5,0.5c0.9,0.8,1.9,1.4,3.1,1.8
				C260.7,133.2,260.9,132.5,260.5,132.4L260.5,132.4z"/>
		</g>
	</g>
	<g>
		<g>
			<path fill="#39B54A" d="M240.8,131.3c0-1,0.3-2,0.8-2.8c0.3-0.4-0.4-0.8-0.6-0.4c-0.6,1-0.9,2.1-1,3.2
				C240.1,131.7,240.8,131.7,240.8,131.3L240.8,131.3z"/>
		</g>
	</g>
	<g>
		<g>
			<path fill="#39B54A" d="M258.1,116.1c0.6-0.3,1.2-0.5,1.8-0.8c0.4-0.2,0.1-0.8-0.4-0.6c-0.6,0.3-1.2,0.5-1.8,0.8
				C257.3,115.6,257.6,116.3,258.1,116.1L258.1,116.1z"/>
		</g>
	</g>
	<g>
		<g>
			<path fill="#F59DB2" d="M249.8,106.5c-0.1,0.6-0.1,1.2-0.2,1.8c-0.1,0.5,0.7,0.5,0.8,0c0.1-0.6,0.1-1.2,0.2-1.8
				C250.6,106,249.8,106,249.8,106.5L249.8,106.5z"/>
		</g>
	</g>
	<g>
		<path fill="#E81A4B" d="M239,111.8c0.8-0.4,1.5-0.9,2.3-1.3"/>
		<g>
			<path fill="#E81A4B" d="M239.2,112.2c0.8-0.4,1.5-0.9,2.3-1.3c0.4-0.2,0-0.9-0.4-0.6c-0.8,0.4-1.5,0.9-2.3,1.3
				C238.4,111.8,238.7,112.4,239.2,112.2L239.2,112.2z"/>
		</g>
	</g>
	<g>
		<g>
			<path fill="#E81A4B" d="M252.2,135.1c0.1-0.7,0.1-1.4-0.1-2.1c-0.1-0.5-0.8-0.3-0.7,0.2c0.1,0.5,0.2,1.1,0.1,1.7
				C251.4,135.3,252.2,135.6,252.2,135.1L252.2,135.1z"/>
		</g>
	</g>
	<g>
		<g>
			<path fill="#E81A4B" d="M237.2,125.3c0.5-0.2,1.1-0.3,1.7-0.3c0.5,0,0.5-0.7,0-0.8c-0.7-0.1-1.4,0.1-2.1,0.4
				C236.4,124.9,236.8,125.5,237.2,125.3L237.2,125.3z"/>
		</g>
	</g>
	<g>
		<g>
			<path fill="#E81A4B" d="M261.8,120.6c0.4-0.7,0.9-1.3,1.5-1.9c0.3-0.3-0.2-0.9-0.5-0.5c-0.6,0.6-1.1,1.3-1.6,2
				C260.9,120.6,261.5,121,261.8,120.6L261.8,120.6z"/>
		</g>
	</g>
	<g>
		<g>
			<path fill="#FFF200" d="M253.1,109.4c-0.1,0.5-0.1,1-0.2,1.5c-0.1,0.5,0.7,0.5,0.8,0c0.1-0.5,0.1-1,0.2-1.5
				C253.9,108.9,253.2,108.9,253.1,109.4L253.1,109.4z"/>
		</g>
	</g>
	<g>
		<g>
			<path fill="#FFF200" d="M243.5,113.3c0.9,0.1,1.9,0.2,2.8,0c0.5-0.1,0.5-0.8,0-0.8c-0.9,0.1-1.7,0.1-2.6,0
				C243.2,112.5,243,113.3,243.5,113.3L243.5,113.3z"/>
		</g>
	</g>
	<g>
		<g>
			<path fill="#FFF200" d="M233.5,118.3c0-0.5,0.1-1.1,0.3-1.6c0.2-0.5-0.6-0.6-0.7-0.2c-0.2,0.6-0.3,1.2-0.3,1.8
				C232.8,118.8,233.5,118.8,233.5,118.3L233.5,118.3z"/>
		</g>
	</g>
	<g>
		<g>
			<path fill="#FFF200" d="M265.7,122.4c0.7,0.4,1.2,0.9,1.7,1.4c0.3,0.4,0.8-0.2,0.5-0.5c-0.5-0.6-1.2-1.1-1.9-1.6
				C265.6,121.5,265.2,122.1,265.7,122.4L265.7,122.4z"/>
		</g>
	</g>
	<g>
		<g>
			<path fill="#FFC60B" d="M251.7,130.4c0.5,0.1,0.9,0.1,1.4,0.2c0.5,0.1,0.5-0.7,0-0.8c-0.5-0.1-0.9-0.1-1.4-0.2
				C251.2,129.5,251.2,130.3,251.7,130.4L251.7,130.4z"/>
		</g>
	</g>
	<g>
		<g>
			<path fill="#9B85BE" d="M264.7,130.8c0-0.7,0.1-1.4,0.3-2.1c0.1-0.5-0.6-0.7-0.7-0.2c-0.2,0.8-0.4,1.5-0.4,2.3
				C263.9,131.3,264.6,131.3,264.7,130.8L264.7,130.8z"/>
		</g>
	</g>
	<g>
		<g>
			<path fill="#9B85BE" d="M245.9,131.6c0.1-0.6,0.1-1.2,0.2-1.8c0.1-0.5-0.7-0.5-0.8,0c-0.1,0.6-0.1,1.2-0.2,1.8
				C245.1,132,245.9,132,245.9,131.6L245.9,131.6z"/>
		</g>
	</g>
	<g>
		<g>
			<path fill="#9B85BE" d="M241,121.1c0.5,0.3,1.1,0.6,1.6,0.9c0.4,0.2,0.8-0.4,0.4-0.6c-0.5-0.3-1.1-0.6-1.6-0.9
				C241,120.3,240.6,120.9,241,121.1L241,121.1z"/>
		</g>
	</g>
	<g>
		<g>
			<path fill="#9B85BE" d="M235.3,129.4c0.3,0.4,0.7,0.8,1,1.3c0.3,0.4,0.8-0.2,0.5-0.5c-0.3-0.4-0.7-0.8-1-1.3
				C235.5,128.5,235,129,235.3,129.4L235.3,129.4z"/>
		</g>
	</g>
	<g>
		<g>
			<path fill="#00AEEF" d="M263,110.7c0.9,0.3,1.7,0.8,2.3,1.4c0.3,0.3,0.9-0.2,0.5-0.5c-0.8-0.7-1.7-1.3-2.7-1.6
				C262.7,109.8,262.5,110.5,263,110.7L263,110.7z"/>
		</g>
	</g>
	<g>
		<g>
			<path fill="#F7A5AA" d="M266,115.3c0.5,0.3,1.1,0.6,1.6,0.9c0.4,0.2,0.8-0.4,0.4-0.6c-0.5-0.3-1.1-0.6-1.6-0.9
				C266,114.4,265.6,115.1,266,115.3L266,115.3z"/>
		</g>
	</g>
	<g>
		<g>
			<path fill="#E07F48" d="M251.1,104.7c0.6,0.1,1.2,0.1,1.8,0.2c0.5,0.1,0.5-0.7,0-0.8c-0.6-0.1-1.2-0.1-1.8-0.2
				C250.6,103.9,250.6,104.6,251.1,104.7L251.1,104.7z"/>
		</g>
	</g>
	<g>
		<g>
			<path fill="#E07F48" d="M257.8,125.9c0,1.1,0.3,2.1,0.9,3c0.3,0.4,0.9,0,0.6-0.4c-0.5-0.8-0.8-1.7-0.8-2.6
				C258.5,125.4,257.8,125.4,257.8,125.9L257.8,125.9z"/>
		</g>
	</g>
</g>
<path fill="#FBB57F" d="M301.1,99.4c-11.7-2.4-23.2,5.2-25.5,16.9c-2.4,11.7,5.2,23.2,16.9,25.5c11.7,2.4,23.2-5.2,25.5-16.9
	C320.4,113.2,312.8,101.8,301.1,99.4z M296.4,125.5c-6.4-0.7-5.3-10.7,1.1-9.9C303.9,116.3,302.8,126.2,296.4,125.5z"/>
<path fill="#EF659A" d="M316.6,119.1l-1.1-5.4c-0.5-2.3-1.7-4.5-3.4-6.1l-3.9-3.7c-1.8-1.7-4.1-2.8-6.6-3.1l-5-0.6
	c-2.5-0.3-5,0.2-7.1,1.5l-4.6,2.7c-2.1,1.2-3.7,3-4.7,5.2l-2.3,5.1c-1,2.2-1.3,4.6-0.8,7l1.1,5.4c0.5,2.3,1.7,4.5,3.4,6.1l3.9,3.7
	c1.8,1.7,4.1,2.8,6.6,3l5.1,0.6c2.5,0.3,5-0.2,7.1-1.5l4.6-2.7c2.1-1.2,3.7-3,4.7-5.2l2.3-5.1C316.8,123.9,317,121.5,316.6,119.1z
	 M296.4,125.5c-6.4-0.7-5.3-10.7,1.1-9.9C303.9,116.3,302.8,126.2,296.4,125.5z"/>
<path fill="none" stroke="#FBB57F" stroke-miterlimit="10" d="M297.6,115.1c-3-0.3-5.7,1.8-6,4.8c-0.3,3,1.8,5.7,4.8,6
	c3,0.3,5.7-1.8,6-4.8C302.7,118.2,300.6,115.5,297.6,115.1z M296.4,125.5c-6.4-0.7-5.3-10.7,1.1-9.9
	C303.9,116.3,302.8,126.2,296.4,125.5z"/>
<g>
	<path fill="#F7941E" d="M302.5,106.6c0.8,0.2,1.7,0.6,2.4,1.1"/>
	<g>
		<path fill="#F7941E" d="M302.4,106.9c0.8,0.2,1.6,0.6,2.3,1c0.4,0.2,0.8-0.4,0.4-0.6c-0.8-0.5-1.6-0.8-2.5-1.1
			C302.2,106.1,302,106.8,302.4,106.9L302.4,106.9z"/>
	</g>
</g>
<g>
	<g>
		<path fill="#AADFF1" d="M284.3,120c0.3-1.1,0.8-2.1,1.4-3c0.2-0.4-0.4-0.8-0.6-0.4c-0.6,1-1.1,2.1-1.4,3.2
			C283.4,120.2,284.1,120.4,284.3,120L284.3,120z"/>
	</g>
</g>
<g>
	<g>
		<path fill="#AADFF1" d="M288.7,105c1,0.1,1.9,0.4,2.8,0.9c0.4,0.2,0.8-0.4,0.4-0.6c-1-0.5-2.1-0.8-3.2-1
			C288.2,104.2,288.2,104.9,288.7,105L288.7,105z"/>
	</g>
</g>
<g>
	<g>
		<path fill="#AADFF1" d="M308.7,126.4c0.1-1.2,0.3-2.3,0.4-3.5c0.1-0.5-0.7-0.5-0.8,0c-0.1,1.2-0.3,2.3-0.4,3.5
			C307.9,126.8,308.7,126.8,308.7,126.4L308.7,126.4z"/>
	</g>
</g>
<g>
	<g>
		<path fill="#39B54A" d="M306.5,132.4c-1-0.3-1.9-0.9-2.7-1.6c-0.4-0.3-0.9,0.2-0.5,0.5c0.9,0.8,1.9,1.4,3.1,1.8
			C306.7,133.2,306.9,132.5,306.5,132.4L306.5,132.4z"/>
	</g>
</g>
<g>
	<g>
		<path fill="#39B54A" d="M286.8,131.3c0-1,0.3-2,0.8-2.8c0.3-0.4-0.4-0.8-0.6-0.4c-0.6,1-0.9,2.1-1,3.2
			C286.1,131.7,286.8,131.7,286.8,131.3L286.8,131.3z"/>
	</g>
</g>
<g>
	<g>
		<path fill="#39B54A" d="M304.1,116.1c0.6-0.3,1.2-0.5,1.8-0.8c0.4-0.2,0.1-0.8-0.4-0.6c-0.6,0.3-1.2,0.5-1.8,0.8
			C303.3,115.6,303.6,116.3,304.1,116.1L304.1,116.1z"/>
	</g>
</g>
<g>
	<path fill="#E81A4B" d="M296.1,106.5c-0.1,0.6-0.1,1.2-0.2,1.8"/>
	<g>
		<path fill="#E81A4B" d="M295.8,106.5c-0.1,0.6-0.1,1.2-0.2,1.8c-0.1,0.5,0.7,0.5,0.8,0c0.1-0.6,0.1-1.2,0.2-1.8
			C296.6,106,295.8,106,295.8,106.5L295.8,106.5z"/>
	</g>
</g>
<g>
	<path fill="#39B54A" d="M285,111.8c0.8-0.4,1.5-0.9,2.3-1.3"/>
	<g>
		<path fill="#39B54A" d="M285.2,112.2c0.8-0.4,1.5-0.9,2.3-1.3c0.4-0.2,0-0.9-0.4-0.6c-0.8,0.4-1.5,0.9-2.3,1.3
			C284.4,111.8,284.7,112.4,285.2,112.2L285.2,112.2z"/>
	</g>
</g>
<g>
	<g>
		<path fill="#E81A4B" d="M298.2,135.1c0.1-0.7,0.1-1.4-0.1-2.1c-0.1-0.5-0.8-0.3-0.7,0.2c0.1,0.5,0.2,1.1,0.1,1.7
			C297.4,135.3,298.2,135.6,298.2,135.1L298.2,135.1z"/>
	</g>
</g>
<g>
	<g>
		<path fill="#E81A4B" d="M283.2,125.3c0.5-0.2,1.1-0.3,1.7-0.3c0.5,0,0.5-0.7,0-0.8c-0.7-0.1-1.4,0.1-2.1,0.4
			C282.4,124.9,282.8,125.5,283.2,125.3L283.2,125.3z"/>
	</g>
</g>
<g>
	<g>
		<path fill="#E81A4B" d="M307.8,120.6c0.4-0.7,0.9-1.3,1.5-1.9c0.3-0.3-0.2-0.9-0.5-0.5c-0.6,0.6-1.1,1.3-1.6,2
			C306.9,120.6,307.5,121,307.8,120.6L307.8,120.6z"/>
	</g>
</g>
<g>
	<g>
		<path fill="#FFF200" d="M299.1,109.4c-0.1,0.5-0.1,1-0.2,1.5c-0.1,0.5,0.7,0.5,0.8,0c0.1-0.5,0.1-1,0.2-1.5
			C299.9,108.9,299.2,108.9,299.1,109.4L299.1,109.4z"/>
	</g>
</g>
<g>
	<g>
		<path fill="#FFF200" d="M289.5,113.3c0.9,0.1,1.9,0.2,2.8,0c0.5-0.1,0.5-0.8,0-0.8c-0.9,0.1-1.7,0.1-2.6,0
			C289.2,112.5,289,113.3,289.5,113.3L289.5,113.3z"/>
	</g>
</g>
<g>
	<g>
		<path fill="#FFF200" d="M279.5,118.3c0-0.5,0.1-1.1,0.3-1.6c0.2-0.5-0.6-0.6-0.7-0.2c-0.2,0.6-0.3,1.2-0.3,1.8
			C278.8,118.8,279.5,118.8,279.5,118.3L279.5,118.3z"/>
	</g>
</g>
<g>
	<g>
		<path fill="#FFF200" d="M311.7,122.4c0.7,0.4,1.2,0.9,1.7,1.4c0.3,0.4,0.8-0.2,0.5-0.5c-0.5-0.6-1.2-1.1-1.9-1.6
			C311.6,121.5,311.2,122.1,311.7,122.4L311.7,122.4z"/>
	</g>
</g>
<g>
	<g>
		<path fill="#FFC60B" d="M297.7,130.4c0.5,0.1,0.9,0.1,1.4,0.2c0.5,0.1,0.5-0.7,0-0.8c-0.5-0.1-0.9-0.1-1.4-0.2
			C297.2,129.5,297.2,130.3,297.7,130.4L297.7,130.4z"/>
	</g>
</g>
<g>
	<g>
		<path fill="#9B85BE" d="M310.7,130.8c0-0.7,0.1-1.4,0.3-2.1c0.1-0.5-0.6-0.7-0.7-0.2c-0.2,0.8-0.4,1.5-0.4,2.3
			C309.9,131.3,310.6,131.3,310.7,130.8L310.7,130.8z"/>
	</g>
</g>
<g>
	<g>
		<path fill="#9B85BE" d="M291.9,131.6c0.1-0.6,0.1-1.2,0.2-1.8c0.1-0.5-0.7-0.5-0.8,0c-0.1,0.6-0.1,1.2-0.2,1.8
			C291.1,132,291.9,132,291.9,131.6L291.9,131.6z"/>
	</g>
</g>
<g>
	<g>
		<path fill="#9B85BE" d="M287,121.1c0.5,0.3,1.1,0.6,1.6,0.9c0.4,0.2,0.8-0.4,0.4-0.6c-0.5-0.3-1.1-0.6-1.6-0.9
			C287,120.3,286.6,120.9,287,121.1L287,121.1z"/>
	</g>
</g>
<g>
	<g>
		<path fill="#9B85BE" d="M281.3,129.4c0.3,0.4,0.7,0.8,1,1.3c0.3,0.4,0.8-0.2,0.5-0.5c-0.3-0.4-0.7-0.8-1-1.3
			C281.5,128.5,281,129,281.3,129.4L281.3,129.4z"/>
	</g>
</g>
<g>
	<g>
		<path fill="#00AEEF" d="M309,110.7c0.9,0.3,1.7,0.8,2.3,1.4c0.3,0.3,0.9-0.2,0.5-0.5c-0.8-0.7-1.7-1.3-2.7-1.6
			C308.7,109.8,308.5,110.5,309,110.7L309,110.7z"/>
	</g>
</g>
<g>
	<path fill="#FF79E1" d="M312.2,115c0.5,0.3,1.1,0.6,1.6,0.9"/>
	<g>
		<path fill="#FF79E1" d="M312,115.3c0.5,0.3,1.1,0.6,1.6,0.9c0.4,0.2,0.8-0.4,0.4-0.6c-0.5-0.3-1.1-0.6-1.6-0.9
			C312,114.4,311.6,115.1,312,115.3L312,115.3z"/>
	</g>
</g>
<g>
	<g>
		<path fill="#E07F48" d="M297.1,104.7c0.6,0.1,1.2,0.1,1.8,0.2c0.5,0.1,0.5-0.7,0-0.8c-0.6-0.1-1.2-0.1-1.8-0.2
			C296.6,103.9,296.6,104.6,297.1,104.7L297.1,104.7z"/>
	</g>
</g>
<g>
	<g>
		<path fill="#E07F48" d="M303.8,125.9c0,1.1,0.3,2.1,0.9,3c0.3,0.4,0.9,0,0.6-0.4c-0.5-0.8-0.8-1.7-0.8-2.6
			C304.5,125.4,303.8,125.4,303.8,125.9L303.8,125.9z"/>
	</g>
</g>
<path fill="#FBB57F" d="M347.1,100.4c-11.7-2.4-23.2,5.2-25.5,16.9c-2.4,11.7,5.2,23.2,16.9,25.5c11.7,2.4,23.2-5.2,25.5-16.9
	C366.4,114.2,358.8,102.8,347.1,100.4z M342.4,126.5c-6.4-0.7-5.3-10.7,1.1-9.9C349.9,117.3,348.8,127.2,342.4,126.5z"/>
<path fill="#CC8656" d="M362.6,120.1l-1.1-5.4c-0.5-2.3-1.7-4.5-3.4-6.1l-3.9-3.7c-1.8-1.7-4.1-2.8-6.6-3.1l-5-0.6
	c-2.5-0.3-5,0.2-7.1,1.5l-4.6,2.7c-2.1,1.2-3.7,3-4.7,5.2l-2.3,5.1c-1,2.2-1.3,4.6-0.8,7l1.1,5.4c0.5,2.3,1.7,4.5,3.4,6.1l3.9,3.7
	c1.8,1.7,4.1,2.8,6.6,3l5.1,0.6c2.5,0.3,5-0.2,7.1-1.5l4.6-2.7c2.1-1.2,3.7-3,4.7-5.2l2.3-5.1C362.8,124.9,363,122.5,362.6,120.1z
	 M342.4,126.5c-6.4-0.7-5.3-10.7,1.1-9.9C349.9,117.3,348.8,127.2,342.4,126.5z"/>
<path fill="none" stroke="#FBB57F" stroke-miterlimit="10" d="M343.6,116.1c-3-0.3-5.7,1.8-6,4.8c-0.3,3,1.8,5.7,4.8,6
	c3,0.3,5.7-1.8,6-4.8C348.7,119.2,346.6,116.5,343.6,116.1z M342.4,126.5c-6.4-0.7-5.3-10.7,1.1-9.9
	C349.9,117.3,348.8,127.2,342.4,126.5z"/>
<g>
	<g>
		<path fill="#AADFF1" d="M348.4,107.9c0.8,0.2,1.6,0.6,2.3,1c0.4,0.2,0.8-0.4,0.4-0.6c-0.8-0.5-1.6-0.8-2.5-1.1
			C348.2,107.1,348,107.8,348.4,107.9L348.4,107.9z"/>
	</g>
</g>
<g>
	<g>
		<path fill="#AADFF1" d="M330.3,121c0.3-1.1,0.8-2.1,1.4-3c0.2-0.4-0.4-0.8-0.6-0.4c-0.6,1-1.1,2.1-1.4,3.2
			C329.4,121.2,330.1,121.4,330.3,121L330.3,121z"/>
	</g>
</g>
<g>
	<g>
		<path fill="#AADFF1" d="M334.7,106c1,0.1,1.9,0.4,2.8,0.9c0.4,0.2,0.8-0.4,0.4-0.6c-1-0.5-2.1-0.8-3.2-1
			C334.2,105.2,334.2,105.9,334.7,106L334.7,106z"/>
	</g>
</g>
<g>
	<g>
		<path fill="#AADFF1" d="M354.7,127.4c0.1-1.2,0.3-2.3,0.4-3.5c0.1-0.5-0.7-0.5-0.8,0c-0.1,1.2-0.3,2.3-0.4,3.5
			C353.9,127.8,354.7,127.8,354.7,127.4L354.7,127.4z"/>
	</g>
</g>
<g>
	<g>
		<path fill="#39B54A" d="M352.5,133.4c-1-0.3-1.9-0.9-2.7-1.6c-0.4-0.3-0.9,0.2-0.5,0.5c0.9,0.8,1.9,1.4,3.1,1.8
			C352.7,134.2,352.9,133.5,352.5,133.4L352.5,133.4z"/>
	</g>
</g>
<g>
	<g>
		<path fill="#39B54A" d="M332.8,132.3c0-1,0.3-2,0.8-2.8c0.3-0.4-0.4-0.8-0.6-0.4c-0.6,1-0.9,2.1-1,3.2
			C332.1,132.7,332.8,132.7,332.8,132.3L332.8,132.3z"/>
	</g>
</g>
<g>
	<g>
		<path fill="#39B54A" d="M350.1,117.1c0.6-0.3,1.2-0.5,1.8-0.8c0.4-0.2,0.1-0.8-0.4-0.6c-0.6,0.3-1.2,0.5-1.8,0.8
			C349.3,116.6,349.6,117.3,350.1,117.1L350.1,117.1z"/>
	</g>
</g>
<g>
	<g>
		<path fill="#F59DB2" d="M341.8,107.5c-0.1,0.6-0.1,1.2-0.2,1.8c-0.1,0.5,0.7,0.5,0.8,0c0.1-0.6,0.1-1.2,0.2-1.8
			C342.6,107,341.8,107,341.8,107.5L341.8,107.5z"/>
	</g>
</g>
<g>
	<g>
		<path fill="#F59DB2" d="M331.2,113.2c0.8-0.4,1.5-0.9,2.3-1.3c0.4-0.2,0-0.9-0.4-0.6c-0.8,0.4-1.5,0.9-2.3,1.3
			C330.4,112.8,330.7,113.4,331.2,113.2L331.2,113.2z"/>
	</g>
</g>
<g>
	<g>
		<path fill="#E81A4B" d="M344.2,136.1c0.1-0.7,0.1-1.4-0.1-2.1c-0.1-0.5-0.8-0.3-0.7,0.2c0.1,0.5,0.2,1.1,0.1,1.7
			C343.4,136.3,344.2,136.6,344.2,136.1L344.2,136.1z"/>
	</g>
</g>
<g>
	<g>
		<path fill="#E81A4B" d="M329.2,126.3c0.5-0.2,1.1-0.3,1.7-0.3c0.5,0,0.5-0.7,0-0.8c-0.7-0.1-1.4,0.1-2.1,0.4
			C328.4,125.9,328.8,126.5,329.2,126.3L329.2,126.3z"/>
	</g>
</g>
<g>
	<g>
		<path fill="#E81A4B" d="M353.8,121.6c0.4-0.7,0.9-1.3,1.5-1.9c0.3-0.3-0.2-0.9-0.5-0.5c-0.6,0.6-1.1,1.3-1.6,2
			C352.9,121.6,353.5,122,353.8,121.6L353.8,121.6z"/>
	</g>
</g>
<g>
	<g>
		<path fill="#FFF200" d="M345.1,110.4c-0.1,0.5-0.1,1-0.2,1.5c-0.1,0.5,0.7,0.5,0.8,0c0.1-0.5,0.1-1,0.2-1.5
			C345.9,109.9,345.2,109.9,345.1,110.4L345.1,110.4z"/>
	</g>
</g>
<g>
	<g>
		<path fill="#FFF200" d="M335.5,114.3c0.9,0.1,1.9,0.2,2.8,0c0.5-0.1,0.5-0.8,0-0.8c-0.9,0.1-1.7,0.1-2.6,0
			C335.2,113.5,335,114.3,335.5,114.3L335.5,114.3z"/>
	</g>
</g>
<g>
	<g>
		<path fill="#FFF200" d="M325.5,119.3c0-0.5,0.1-1.1,0.3-1.6c0.2-0.5-0.6-0.6-0.7-0.2c-0.2,0.6-0.3,1.2-0.3,1.8
			C324.8,119.8,325.5,119.8,325.5,119.3L325.5,119.3z"/>
	</g>
</g>
<g>
	<g>
		<path fill="#FFF200" d="M357.7,123.4c0.7,0.4,1.2,0.9,1.7,1.4c0.3,0.4,0.8-0.2,0.5-0.5c-0.5-0.6-1.2-1.1-1.9-1.6
			C357.6,122.5,357.2,123.1,357.7,123.4L357.7,123.4z"/>
	</g>
</g>
<g>
	<g>
		<path fill="#FFC60B" d="M343.7,131.4c0.5,0.1,0.9,0.1,1.4,0.2c0.5,0.1,0.5-0.7,0-0.8c-0.5-0.1-0.9-0.1-1.4-0.2
			C343.2,130.5,343.2,131.3,343.7,131.4L343.7,131.4z"/>
	</g>
</g>
<g>
	<g>
		<path fill="#9B85BE" d="M356.7,131.8c0-0.7,0.1-1.4,0.3-2.1c0.1-0.5-0.6-0.7-0.7-0.2c-0.2,0.8-0.4,1.5-0.4,2.3
			C355.9,132.3,356.6,132.3,356.7,131.8L356.7,131.8z"/>
	</g>
</g>
<g>
	<g>
		<path fill="#9B85BE" d="M337.9,132.6c0.1-0.6,0.1-1.2,0.2-1.8c0.1-0.5-0.7-0.5-0.8,0c-0.1,0.6-0.1,1.2-0.2,1.8
			C337.1,133,337.9,133,337.9,132.6L337.9,132.6z"/>
	</g>
</g>
<g>
	<g>
		<path fill="#9B85BE" d="M333,122.1c0.5,0.3,1.1,0.6,1.6,0.9c0.4,0.2,0.8-0.4,0.4-0.6c-0.5-0.3-1.1-0.6-1.6-0.9
			C333,121.3,332.6,121.9,333,122.1L333,122.1z"/>
	</g>
</g>
<g>
	<g>
		<path fill="#9B85BE" d="M327.3,130.4c0.3,0.4,0.7,0.8,1,1.3c0.3,0.4,0.8-0.2,0.5-0.5c-0.3-0.4-0.7-0.8-1-1.3
			C327.5,129.5,327,130,327.3,130.4L327.3,130.4z"/>
	</g>
</g>
<g>
	<g>
		<path fill="#00AEEF" d="M355,111.7c0.9,0.3,1.7,0.8,2.3,1.4c0.3,0.3,0.9-0.2,0.5-0.5c-0.8-0.7-1.7-1.3-2.7-1.6
			C354.7,110.8,354.5,111.5,355,111.7L355,111.7z"/>
	</g>
</g>
<g>
	<path fill="#ED1C24" d="M358.2,116c0.5,0.3,1.1,0.6,1.6,0.9"/>
	<g>
		<path fill="#ED1C24" d="M358,116.3c0.5,0.3,1.1,0.6,1.6,0.9c0.4,0.2,0.8-0.4,0.4-0.6c-0.5-0.3-1.1-0.6-1.6-0.9
			C358,115.4,357.6,116.1,358,116.3L358,116.3z"/>
	</g>
</g>
<g>
	<g>
		<path fill="#E07F48" d="M343.1,105.7c0.6,0.1,1.2,0.1,1.8,0.2c0.5,0.1,0.5-0.7,0-0.8c-0.6-0.1-1.2-0.1-1.8-0.2
			C342.6,104.9,342.6,105.6,343.1,105.7L343.1,105.7z"/>
	</g>
</g>
<g>
	<g>
		<path fill="#E07F48" d="M349.8,126.9c0,1.1,0.3,2.1,0.9,3c0.3,0.4,0.9,0,0.6-0.4c-0.5-0.8-0.8-1.7-0.8-2.6
			C350.5,126.4,349.8,126.4,349.8,126.9L349.8,126.9z"/>
	</g>
</g>
<path fill="#FBB57F" d="M393.1,100.4c-11.7-2.4-23.2,5.2-25.5,16.9c-2.4,11.7,5.2,23.2,16.9,25.5c11.7,2.4,23.2-5.2,25.5-16.9
	C412.4,114.2,404.8,102.8,393.1,100.4z M388.4,126.5c-6.4-0.7-5.3-10.7,1.1-9.9C395.9,117.3,394.8,127.2,388.4,126.5z"/>
<path fill="#DDD6AC" d="M408.6,120.1l-1.1-5.4c-0.5-2.3-1.7-4.5-3.4-6.1l-3.9-3.7c-1.8-1.7-4.1-2.8-6.6-3.1l-5-0.6
	c-2.5-0.3-5,0.2-7.1,1.5l-4.6,2.7c-2.1,1.2-3.7,3-4.7,5.2l-2.3,5.1c-1,2.2-1.3,4.6-0.8,7l1.1,5.4c0.5,2.3,1.7,4.5,3.4,6.1l3.9,3.7
	c1.8,1.7,4.1,2.8,6.6,3l5.1,0.6c2.5,0.3,5-0.2,7.1-1.5l4.6-2.7c2.1-1.2,3.7-3,4.7-5.2l2.3-5.1C408.8,124.9,409,122.5,408.6,120.1z
	 M388.4,126.5c-6.4-0.7-5.3-10.7,1.1-9.9C395.9,117.3,394.8,127.2,388.4,126.5z"/>
<path fill="none" stroke="#FBB57F" stroke-miterlimit="10" d="M389.6,116.1c-3-0.3-5.7,1.8-6,4.8c-0.3,3,1.8,5.7,4.8,6
	c3,0.3,5.7-1.8,6-4.8C394.7,119.2,392.6,116.5,389.6,116.1z M388.4,126.5c-6.4-0.7-5.3-10.7,1.1-9.9
	C395.9,117.3,394.8,127.2,388.4,126.5z"/>
<g>
	<g>
		<path fill="#AADFF1" d="M394.4,107.9c0.8,0.2,1.6,0.6,2.3,1c0.4,0.2,0.8-0.4,0.4-0.6c-0.8-0.5-1.6-0.8-2.5-1.1
			C394.2,107.1,394,107.8,394.4,107.9L394.4,107.9z"/>
	</g>
</g>
<g>
	<g>
		<path fill="#AADFF1" d="M376.3,121c0.3-1.1,0.8-2.1,1.4-3c0.2-0.4-0.4-0.8-0.6-0.4c-0.6,1-1.1,2.1-1.4,3.2
			C375.4,121.2,376.1,121.4,376.3,121L376.3,121z"/>
	</g>
</g>
<g>
	<g>
		<path fill="#AADFF1" d="M380.7,106c1,0.1,1.9,0.4,2.8,0.9c0.4,0.2,0.8-0.4,0.4-0.6c-1-0.5-2.1-0.8-3.2-1
			C380.2,105.2,380.2,105.9,380.7,106L380.7,106z"/>
	</g>
</g>
<g>
	<g>
		<path fill="#AADFF1" d="M400.7,127.4c0.1-1.2,0.3-2.3,0.4-3.5c0.1-0.5-0.7-0.5-0.8,0c-0.1,1.2-0.3,2.3-0.4,3.5
			C399.9,127.8,400.7,127.8,400.7,127.4L400.7,127.4z"/>
	</g>
</g>
<g>
	<g>
		<path fill="#39B54A" d="M398.5,133.4c-1-0.3-1.9-0.9-2.7-1.6c-0.4-0.3-0.9,0.2-0.5,0.5c0.9,0.8,1.9,1.4,3.1,1.8
			C398.7,134.2,398.9,133.5,398.5,133.4L398.5,133.4z"/>
	</g>
</g>
<g>
	<g>
		<path fill="#39B54A" d="M378.8,132.3c0-1,0.3-2,0.8-2.8c0.3-0.4-0.4-0.8-0.6-0.4c-0.6,1-0.9,2.1-1,3.2
			C378.1,132.7,378.8,132.7,378.8,132.3L378.8,132.3z"/>
	</g>
</g>
<g>
	<g>
		<path fill="#39B54A" d="M396.1,117.1c0.6-0.3,1.2-0.5,1.8-0.8c0.4-0.2,0.1-0.8-0.4-0.6c-0.6,0.3-1.2,0.5-1.8,0.8
			C395.3,116.6,395.6,117.3,396.1,117.1L396.1,117.1z"/>
	</g>
</g>
<g>
	<g>
		<path fill="#F59DB2" d="M387.8,107.5c-0.1,0.6-0.1,1.2-0.2,1.8c-0.1,0.5,0.7,0.5,0.8,0c0.1-0.6,0.1-1.2,0.2-1.8
			C388.6,107,387.8,107,387.8,107.5L387.8,107.5z"/>
	</g>
</g>
<g>
	<path fill="#ED1C24" d="M377,112.8c0.8-0.4,1.5-0.9,2.3-1.3"/>
	<g>
		<path fill="#ED1C24" d="M377.2,113.2c0.8-0.4,1.5-0.9,2.3-1.3c0.4-0.2,0-0.9-0.4-0.6c-0.8,0.4-1.5,0.9-2.3,1.3
			C376.4,112.8,376.7,113.4,377.2,113.2L377.2,113.2z"/>
	</g>
</g>
<g>
	<g>
		<path fill="#E81A4B" d="M390.2,136.1c0.1-0.7,0.1-1.4-0.1-2.1c-0.1-0.5-0.8-0.3-0.7,0.2c0.1,0.5,0.2,1.1,0.1,1.7
			C389.4,136.3,390.2,136.6,390.2,136.1L390.2,136.1z"/>
	</g>
</g>
<g>
	<g>
		<path fill="#E81A4B" d="M375.2,126.3c0.5-0.2,1.1-0.3,1.7-0.3c0.5,0,0.5-0.7,0-0.8c-0.7-0.1-1.4,0.1-2.1,0.4
			C374.4,125.9,374.8,126.5,375.2,126.3L375.2,126.3z"/>
	</g>
</g>
<g>
	<g>
		<path fill="#E81A4B" d="M399.8,121.6c0.4-0.7,0.9-1.3,1.5-1.9c0.3-0.3-0.2-0.9-0.5-0.5c-0.6,0.6-1.1,1.3-1.6,2
			C398.9,121.6,399.5,122,399.8,121.6L399.8,121.6z"/>
	</g>
</g>
<g>
	<g>
		<path fill="#FFF200" d="M391.1,110.4c-0.1,0.5-0.1,1-0.2,1.5c-0.1,0.5,0.7,0.5,0.8,0c0.1-0.5,0.1-1,0.2-1.5
			C391.9,109.9,391.2,109.9,391.1,110.4L391.1,110.4z"/>
	</g>
</g>
<g>
	<g>
		<path fill="#FFF200" d="M381.5,114.3c0.9,0.1,1.9,0.2,2.8,0c0.5-0.1,0.5-0.8,0-0.8c-0.9,0.1-1.7,0.1-2.6,0
			C381.2,113.5,381,114.3,381.5,114.3L381.5,114.3z"/>
	</g>
</g>
<g>
	<g>
		<path fill="#FFF200" d="M371.5,119.3c0-0.5,0.1-1.1,0.3-1.6c0.2-0.5-0.6-0.6-0.7-0.2c-0.2,0.6-0.3,1.2-0.3,1.8
			C370.8,119.8,371.5,119.8,371.5,119.3L371.5,119.3z"/>
	</g>
</g>
<g>
	<g>
		<path fill="#FFF200" d="M403.7,123.4c0.7,0.4,1.2,0.9,1.7,1.4c0.3,0.4,0.8-0.2,0.5-0.5c-0.5-0.6-1.2-1.1-1.9-1.6
			C403.6,122.5,403.2,123.1,403.7,123.4L403.7,123.4z"/>
	</g>
</g>
<g>
	<g>
		<path fill="#FFC60B" d="M389.7,131.4c0.5,0.1,0.9,0.1,1.4,0.2c0.5,0.1,0.5-0.7,0-0.8c-0.5-0.1-0.9-0.1-1.4-0.2
			C389.2,130.5,389.2,131.3,389.7,131.4L389.7,131.4z"/>
	</g>
</g>
<g>
	<g>
		<path fill="#9B85BE" d="M402.7,131.8c0-0.7,0.1-1.4,0.3-2.1c0.1-0.5-0.6-0.7-0.7-0.2c-0.2,0.8-0.4,1.5-0.4,2.3
			C401.9,132.3,402.6,132.3,402.7,131.8L402.7,131.8z"/>
	</g>
</g>
<g>
	<g>
		<path fill="#9B85BE" d="M383.9,132.6c0.1-0.6,0.1-1.2,0.2-1.8c0.1-0.5-0.7-0.5-0.8,0c-0.1,0.6-0.1,1.2-0.2,1.8
			C383.1,133,383.9,133,383.9,132.6L383.9,132.6z"/>
	</g>
</g>
<g>
	<g>
		<path fill="#9B85BE" d="M379,122.1c0.5,0.3,1.1,0.6,1.6,0.9c0.4,0.2,0.8-0.4,0.4-0.6c-0.5-0.3-1.1-0.6-1.6-0.9
			C379,121.3,378.6,121.9,379,122.1L379,122.1z"/>
	</g>
</g>
<g>
	<g>
		<path fill="#9B85BE" d="M373.3,130.4c0.3,0.4,0.7,0.8,1,1.3c0.3,0.4,0.8-0.2,0.5-0.5c-0.3-0.4-0.7-0.8-1-1.3
			C373.5,129.5,373,130,373.3,130.4L373.3,130.4z"/>
	</g>
</g>
<g>
	<g>
		<path fill="#00AEEF" d="M401,111.7c0.9,0.3,1.7,0.8,2.3,1.4c0.3,0.3,0.9-0.2,0.5-0.5c-0.8-0.7-1.7-1.3-2.7-1.6
			C400.7,110.8,400.5,111.5,401,111.7L401,111.7z"/>
	</g>
</g>
<g>
	<path fill="#ED1C24" d="M404.2,116c0.5,0.3,1.1,0.6,1.6,0.9"/>
	<g>
		<path fill="#ED1C24" d="M404,116.3c0.5,0.3,1.1,0.6,1.6,0.9c0.4,0.2,0.8-0.4,0.4-0.6c-0.5-0.3-1.1-0.6-1.6-0.9
			C404,115.4,403.6,116.1,404,116.3L404,116.3z"/>
	</g>
</g>
<g>
	<g>
		<path fill="#E07F48" d="M389.1,105.7c0.6,0.1,1.2,0.1,1.8,0.2c0.5,0.1,0.5-0.7,0-0.8c-0.6-0.1-1.2-0.1-1.8-0.2
			C388.6,104.9,388.6,105.6,389.1,105.7L389.1,105.7z"/>
	</g>
</g>
<g>
	<g>
		<path fill="#E07F48" d="M395.8,126.9c0,1.1,0.3,2.1,0.9,3c0.3,0.4,0.9,0,0.6-0.4c-0.5-0.8-0.8-1.7-0.8-2.6
			C396.5,126.4,395.8,126.4,395.8,126.9L395.8,126.9z"/>
	</g>
</g>
<g>
	<path fill="#FBB57F" d="M436.1,101.4c-11.7-2.4-23.2,5.2-25.5,16.9c-2.4,11.7,5.2,23.2,16.9,25.5c11.7,2.4,23.2-5.2,25.5-16.9
		C455.4,115.2,447.8,103.8,436.1,101.4z M431.4,127.5c-6.4-0.7-5.3-10.7,1.1-9.9C438.9,118.3,437.8,128.2,431.4,127.5z"/>
	<path fill="#665244" d="M451.6,121.1l-1.1-5.4c-0.5-2.3-1.7-4.5-3.4-6.1l-3.9-3.7c-1.8-1.7-4.1-2.8-6.6-3.1l-5-0.6
		c-2.5-0.3-5,0.2-7.1,1.5l-4.6,2.7c-2.1,1.2-3.7,3-4.7,5.2l-2.3,5.1c-1,2.2-1.3,4.6-0.8,7l1.1,5.4c0.5,2.3,1.7,4.5,3.4,6.1l3.9,3.7
		c1.8,1.7,4.1,2.8,6.6,3l5.1,0.6c2.5,0.3,5-0.2,7.1-1.5l4.6-2.7c2.1-1.2,3.7-3,4.7-5.2l2.3-5.1C451.8,125.9,452,123.5,451.6,121.1z
		 M431.4,127.5c-6.4-0.7-5.3-10.7,1.1-9.9C438.9,118.3,437.8,128.2,431.4,127.5z"/>
	<path fill="none" stroke="#FBB57F" stroke-miterlimit="10" d="M432.6,117.1c-3-0.3-5.7,1.8-6,4.8c-0.3,3,1.8,5.7,4.8,6
		c3,0.3,5.7-1.8,6-4.8C437.7,120.2,435.6,117.5,432.6,117.1z M431.4,127.5c-6.4-0.7-5.3-10.7,1.1-9.9
		C438.9,118.3,437.8,128.2,431.4,127.5z"/>
	<g>
		<g>
			<path fill="#AADFF1" d="M437.4,108.9c0.8,0.2,1.6,0.6,2.3,1c0.4,0.2,0.8-0.4,0.4-0.6c-0.8-0.5-1.6-0.8-2.5-1.1
				C437.2,108.1,437,108.8,437.4,108.9L437.4,108.9z"/>
		</g>
	</g>
	<g>
		<g>
			<path fill="#AADFF1" d="M419.3,122c0.3-1.1,0.8-2.1,1.4-3c0.2-0.4-0.4-0.8-0.6-0.4c-0.6,1-1.1,2.1-1.4,3.2
				C418.4,122.2,419.1,122.4,419.3,122L419.3,122z"/>
		</g>
	</g>
	<g>
		<g>
			<path fill="#AADFF1" d="M423.7,107c1,0.1,1.9,0.4,2.8,0.9c0.4,0.2,0.8-0.4,0.4-0.6c-1-0.5-2.1-0.8-3.2-1
				C423.2,106.2,423.2,106.9,423.7,107L423.7,107z"/>
		</g>
	</g>
	<g>
		<g>
			<path fill="#AADFF1" d="M443.7,128.4c0.1-1.2,0.3-2.3,0.4-3.5c0.1-0.5-0.7-0.5-0.8,0c-0.1,1.2-0.3,2.3-0.4,3.5
				C442.9,128.8,443.7,128.8,443.7,128.4L443.7,128.4z"/>
		</g>
	</g>
	<g>
		<g>
			<path fill="#39B54A" d="M441.5,134.4c-1-0.3-1.9-0.9-2.7-1.6c-0.4-0.3-0.9,0.2-0.5,0.5c0.9,0.8,1.9,1.4,3.1,1.8
				C441.7,135.2,441.9,134.5,441.5,134.4L441.5,134.4z"/>
		</g>
	</g>
	<g>
		<g>
			<path fill="#39B54A" d="M421.8,133.3c0-1,0.3-2,0.8-2.8c0.3-0.4-0.4-0.8-0.6-0.4c-0.6,1-0.9,2.1-1,3.2
				C421.1,133.7,421.8,133.7,421.8,133.3L421.8,133.3z"/>
		</g>
	</g>
	<g>
		<g>
			<path fill="#39B54A" d="M439.1,118.1c0.6-0.3,1.2-0.5,1.8-0.8c0.4-0.2,0.1-0.8-0.4-0.6c-0.6,0.3-1.2,0.5-1.8,0.8
				C438.3,117.6,438.6,118.3,439.1,118.1L439.1,118.1z"/>
		</g>
	</g>
	<g>
		<path fill="#ED1C24" d="M431.1,108.5c-0.1,0.6-0.1,1.2-0.2,1.8"/>
		<g>
			<path fill="#ED1C24" d="M430.8,108.5c-0.1,0.6-0.1,1.2-0.2,1.8c-0.1,0.5,0.7,0.5,0.8,0c0.1-0.6,0.1-1.2,0.2-1.8
				C431.6,108,430.8,108,430.8,108.5L430.8,108.5z"/>
		</g>
	</g>
	<g>
		<g>
			<path fill="#F59DB2" d="M420.2,114.2c0.8-0.4,1.5-0.9,2.3-1.3c0.4-0.2,0-0.9-0.4-0.6c-0.8,0.4-1.5,0.9-2.3,1.3
				C419.4,113.8,419.7,114.4,420.2,114.2L420.2,114.2z"/>
		</g>
	</g>
	<g>
		<g>
			<path fill="#E81A4B" d="M433.2,137.1c0.1-0.7,0.1-1.4-0.1-2.1c-0.1-0.5-0.8-0.3-0.7,0.2c0.1,0.5,0.2,1.1,0.1,1.7
				C432.4,137.3,433.2,137.6,433.2,137.1L433.2,137.1z"/>
		</g>
	</g>
	<g>
		<g>
			<path fill="#E81A4B" d="M418.2,127.3c0.5-0.2,1.1-0.3,1.7-0.3c0.5,0,0.5-0.7,0-0.8c-0.7-0.1-1.4,0.1-2.1,0.4
				C417.4,126.9,417.8,127.5,418.2,127.3L418.2,127.3z"/>
		</g>
	</g>
	<g>
		<g>
			<path fill="#E81A4B" d="M442.8,122.6c0.4-0.7,0.9-1.3,1.5-1.9c0.3-0.3-0.2-0.9-0.5-0.5c-0.6,0.6-1.1,1.3-1.6,2
				C441.9,122.6,442.5,123,442.8,122.6L442.8,122.6z"/>
		</g>
	</g>
	<g>
		<g>
			<path fill="#FFF200" d="M434.1,111.4c-0.1,0.5-0.1,1-0.2,1.5c-0.1,0.5,0.7,0.5,0.8,0c0.1-0.5,0.1-1,0.2-1.5
				C434.9,110.9,434.2,110.9,434.1,111.4L434.1,111.4z"/>
		</g>
	</g>
	<g>
		<g>
			<path fill="#FFF200" d="M424.5,115.3c0.9,0.1,1.9,0.2,2.8,0c0.5-0.1,0.5-0.8,0-0.8c-0.9,0.1-1.7,0.1-2.6,0
				C424.2,114.5,424,115.3,424.5,115.3L424.5,115.3z"/>
		</g>
	</g>
	<g>
		<g>
			<path fill="#FFF200" d="M414.5,120.3c0-0.5,0.1-1.1,0.3-1.6c0.2-0.5-0.6-0.6-0.7-0.2c-0.2,0.6-0.3,1.2-0.3,1.8
				C413.8,120.8,414.5,120.8,414.5,120.3L414.5,120.3z"/>
		</g>
	</g>
	<g>
		<g>
			<path fill="#FFF200" d="M446.7,124.4c0.7,0.4,1.2,0.9,1.7,1.4c0.3,0.4,0.8-0.2,0.5-0.5c-0.5-0.6-1.2-1.1-1.9-1.6
				C446.6,123.5,446.2,124.1,446.7,124.4L446.7,124.4z"/>
		</g>
	</g>
	<g>
		<g>
			<path fill="#FFC60B" d="M432.7,132.4c0.5,0.1,0.9,0.1,1.4,0.2c0.5,0.1,0.5-0.7,0-0.8c-0.5-0.1-0.9-0.1-1.4-0.2
				C432.2,131.5,432.2,132.3,432.7,132.4L432.7,132.4z"/>
		</g>
	</g>
	<g>
		<g>
			<path fill="#9B85BE" d="M445.7,132.8c0-0.7,0.1-1.4,0.3-2.1c0.1-0.5-0.6-0.7-0.7-0.2c-0.2,0.8-0.4,1.5-0.4,2.3
				C444.9,133.3,445.6,133.3,445.7,132.8L445.7,132.8z"/>
		</g>
	</g>
	<g>
		<g>
			<path fill="#9B85BE" d="M426.9,133.6c0.1-0.6,0.1-1.2,0.2-1.8c0.1-0.5-0.7-0.5-0.8,0c-0.1,0.6-0.1,1.2-0.2,1.8
				C426.1,134,426.9,134,426.9,133.6L426.9,133.6z"/>
		</g>
	</g>
	<g>
		<g>
			<path fill="#9B85BE" d="M422,123.1c0.5,0.3,1.1,0.6,1.6,0.9c0.4,0.2,0.8-0.4,0.4-0.6c-0.5-0.3-1.1-0.6-1.6-0.9
				C422,122.3,421.6,122.9,422,123.1L422,123.1z"/>
		</g>
	</g>
	<g>
		<g>
			<path fill="#9B85BE" d="M416.3,131.4c0.3,0.4,0.7,0.8,1,1.3c0.3,0.4,0.8-0.2,0.5-0.5c-0.3-0.4-0.7-0.8-1-1.3
				C416.5,130.5,416,131,416.3,131.4L416.3,131.4z"/>
		</g>
	</g>
	<g>
		<g>
			<path fill="#00AEEF" d="M444,112.7c0.9,0.3,1.7,0.8,2.3,1.4c0.3,0.3,0.9-0.2,0.5-0.5c-0.8-0.7-1.7-1.3-2.7-1.6
				C443.7,111.8,443.5,112.5,444,112.7L444,112.7z"/>
		</g>
	</g>
	<g>
		<g>
			<path fill="#F7A5AA" d="M447,117.3c0.5,0.3,1.1,0.6,1.6,0.9c0.4,0.2,0.8-0.4,0.4-0.6c-0.5-0.3-1.1-0.6-1.6-0.9
				C447,116.4,446.6,117.1,447,117.3L447,117.3z"/>
		</g>
	</g>
	<g>
		<g>
			<path fill="#E07F48" d="M432.1,106.7c0.6,0.1,1.2,0.1,1.8,0.2c0.5,0.1,0.5-0.7,0-0.8c-0.6-0.1-1.2-0.1-1.8-0.2
				C431.6,105.9,431.6,106.6,432.1,106.7L432.1,106.7z"/>
		</g>
	</g>
	<g>
		<g>
			<path fill="#E07F48" d="M438.8,127.9c0,1.1,0.3,2.1,0.9,3c0.3,0.4,0.9,0,0.6-0.4c-0.5-0.8-0.8-1.7-0.8-2.6
				C439.5,127.4,438.8,127.4,438.8,127.9L438.8,127.9z"/>
		</g>
	</g>
</g>
<g>
	<g>
		<path fill="#E81A4B" d="M239.3,125.6c-0.3,0.5-0.7,1.1-1,1.6c-0.3,0.4,0.4,0.8,0.6,0.4c0.3-0.5,0.7-1.1,1-1.6
			C240.2,125.6,239.6,125.2,239.3,125.6L239.3,125.6z"/>
	</g>
</g>
<rect x="207" y="120" fill="#FF7BAC" width="240.3" height="66.7"/>
<g>
	<g>
		<path fill="none" stroke="#333333" stroke-miterlimit="10" d="M240.5,113.5"/>
	</g>
</g>
<g>
	<g>
		<path fill="none" stroke="#333333" stroke-miterlimit="10" d="M249.1,114.7"/>
	</g>
</g>
<polyline fill="#FF7BAC" points="447,187 447,120.6 484,93.3 "/>
</svg>
